<svg xmlns="http://www.w3.org/2000/svg" viewBox="0 0 64 64">
  <defs>
    <linearGradient id="bg" x1="0%" y1="0%" x2="100%" y2="100%">
      <stop offset="0%" stop-color="#0f172a"/>
      <stop offset="100%" stop-color="#1e293b"/>
    </linearGradient>
  </defs>
  <rect width="64" height="64" rx="12" ry="12" fill="url(#bg)"/>
  <g fill="#2563eb">
    <rect x="30" y="6" width="4" height="10" rx="2"/>
    <rect x="30" y="48" width="4" height="10" rx="2"/>
    <rect x="48" y="30" width="10" height="4" rx="2"/>
    <rect x="6" y="30" width="10" height="4" rx="2"/>
    <rect x="45.5" y="12.5" width="4" height="10" rx="2" transform="rotate(45 47.5 17.5)"/>
    <rect x="45.5" y="41.5" width="4" height="10" rx="2" transform="rotate(135 47.5 46.5)"/>
    <rect x="14.5" y="41.5" width="4" height="10" rx="2" transform="rotate(45 16.5 46.5)"/>
    <rect x="14.5" y="12.5" width="4" height="10" rx="2" transform="rotate(135 16.5 17.5)"/>
  </g>
  <circle cx="32" cy="32" r="16" fill="#0b1526" stroke="#38bdf8" stroke-width="3"/>
  <circle cx="32" cy="32" r="9" fill="#122b45" stroke="#38bdf8" stroke-width="2"/>
  <path d="M26 18l8-6 8 6" fill="#38bdf8" opacity="0.75"/>
  <path d="M34 22h6l-6 12h5l-15 18 4-12h-5l11-18z" fill="#facc15" stroke="#facc15" stroke-linejoin="round"/>
</svg>
